<svg width="64" height="64" viewBox="0 0 64 64" fill="none" xmlns="http://www.w3.org/2000/svg"><path d="M56 56H48V64H56C60.42 64 64 60.42 64 56H56Z" fill="#BFE9FF"></path><path d="M48 56V0H0V56C0 60.42 3.58 64 8 64H48H56C51.58 64 48 60.42 48 56Z" fill="#56B4FC"></path><path d="M48 56H0C0 60.42 3.58 64 8 64H56C51.58 64 48 60.42 48 56Z" fill="#1652F0"></path><path d="M40 30H8V32H40V30Z" fill="white"></path><path d="M40 36H8V38H40V36Z" fill="white"></path><path d="M40 42H8V44H40V42Z" fill="white"></path><path d="M32 48H16V50H32V48Z" fill="white"></path><path d="M23.4998 24.66L20.2598 18.74L14.3398 15.5L20.2598 12.26L23.4998 6.34L26.7398 12.26L32.6598 15.5L26.7398 18.74L23.4998 24.66ZM18.5098 15.5L21.7298 17.26L23.4898 20.48L25.2498 17.26L28.4698 15.5L25.2498 13.74L23.4898 10.52L21.7298 13.74L18.5098 15.5Z" fill="white"></path></svg>