<svg width="64" height="64" viewBox="0 0 64 64" fill="none" xmlns="http://www.w3.org/2000/svg"><path d="M56 0H8V50H56V0Z" fill="#BFE9FF"></path><path d="M64 10H0V58H64V10Z" fill="#56B4FC"></path><path d="M56 10H8V50H56V10Z" fill="#1652F0"></path><path d="M10 16H6V24H10V16Z" fill="#1652F0"></path><path d="M10 36H6V44H10V36Z" fill="#1652F0"></path><path d="M64 58H56V64H64V58Z" fill="#56B4FC"></path><path d="M8 58H0V64H8V58Z" fill="#56B4FC"></path><path d="M41.1905 20.81C36.1205 15.74 27.8705 15.74 22.8105 20.81C17.7505 25.88 17.7405 34.13 22.8105 39.19C25.3405 41.72 28.6705 42.99 32.0005 42.99C35.3305 42.99 38.6605 41.72 41.1905 39.19C46.2605 34.12 46.2605 25.88 41.1905 20.81ZM32.0005 19C34.5005 19 37.0005 19.85 39.0405 21.55L36.1905 24.4C34.9805 23.5 33.5305 23 32.0005 23C30.4705 23 29.0205 23.5 27.8105 24.4L24.9605 21.55C27.0005 19.86 29.5005 19 32.0005 19ZM35.5405 33.54C34.5905 34.48 33.3405 35 32.0005 35C30.6605 35 29.4105 34.48 28.4605 33.54C27.5105 32.6 27.0005 31.33 27.0005 30C27.0005 28.67 27.5205 27.41 28.4605 26.46C29.4005 25.51 30.6605 25 32.0005 25C33.3405 25 34.5905 25.52 35.5405 26.46C36.4905 27.4 37.0005 28.67 37.0005 30C37.0005 31.33 36.4805 32.59 35.5405 33.54ZM23.5505 22.96L26.4005 25.81C25.5005 27.02 25.0005 28.47 25.0005 30C25.0005 31.53 25.5005 32.98 26.4005 34.19L23.5505 37.04C20.1605 32.97 20.1605 27.03 23.5505 22.96ZM24.9605 38.45L27.8105 35.6C29.0105 36.5 30.4705 37 32.0005 37C33.5305 37 34.9805 36.5 36.1905 35.6L39.0405 38.45C34.9705 41.84 29.0305 41.84 24.9605 38.45ZM40.4505 37.04L37.6005 34.19C38.5005 32.99 39.0005 31.54 39.0005 30C39.0005 28.47 38.5005 27.02 37.6005 25.81L40.4505 22.96C43.8405 27.03 43.8405 32.97 40.4505 37.04Z" fill="white"></path></svg>