<svg width="56" height="64" viewBox="0 0 56 64" fill="none" xmlns="http://www.w3.org/2000/svg"><path d="M56 0H24V64H56V0Z" fill="#BFE9FF"></path><path d="M0 8V36C0 49.25 24 60 24 60C24 60 48 49.25 48 36V8H0Z" fill="#56B4FC"></path><path d="M24 8V60C24 60 48 49.25 48 36V8H24Z" fill="#1652F0"></path><path d="M7 15V36C7 40.92 15.57 47.72 23.53 51.97L24 52.22L24.47 51.97C32.43 47.72 41 40.92 41 36V15H7ZM39 17V23H9V17H39ZM24 49.95C15.55 45.35 9 39.28 9 36V25H39V36C39 39.28 32.45 45.35 24 49.95Z" fill="white"></path></svg>